<svg width="147" height="14" viewBox="0 0 147 14" fill="none" xmlns="http://www.w3.org/2000/svg">
<path d="M0.24 13.6417H2.544L7.856 0.441709H5.568L0.24 13.6417Z" fill="#F43F5E"/>
<path d="M12.2458 13.0017H14.4218V8.60171H16.4698L18.9338 13.0017H21.3978L18.6618 8.21771C19.3231 7.94038 19.8458 7.51371 20.2298 6.93771C20.6244 6.36171 20.8218 5.66304 20.8218 4.84171C20.8218 4.03104 20.6458 3.34838 20.2938 2.79371C19.9418 2.23904 19.4511 1.81771 18.8218 1.52971C18.2031 1.23104 17.4884 1.08171 16.6778 1.08171H12.2458V13.0017ZM14.4218 6.68171V3.00171H16.7098C17.2964 3.00171 17.7658 3.16704 18.1178 3.49771C18.4698 3.82838 18.6458 4.27638 18.6458 4.84171C18.6458 5.39638 18.4698 5.84438 18.1178 6.18571C17.7658 6.51638 17.2964 6.68171 16.7098 6.68171H14.4218ZM24.8479 13.0017H27.1999L28.0639 10.4417H32.6719L33.5199 13.0017H35.8879L31.7759 1.08171H28.9599L24.8479 13.0017ZM28.6879 8.52171L30.3679 3.49771L32.0479 8.52171H28.6879ZM40.2145 13.0017H42.3905V8.60171H44.4385L46.9025 13.0017H49.3665L46.6305 8.21771C47.2918 7.94038 47.8145 7.51371 48.1985 6.93771C48.5932 6.36171 48.7905 5.66304 48.7905 4.84171C48.7905 4.03104 48.6145 3.34838 48.2625 2.79371C47.9105 2.23904 47.4198 1.81771 46.7905 1.52971C46.1718 1.23104 45.4572 1.08171 44.6465 1.08171H40.2145V13.0017ZM42.3905 6.68171V3.00171H44.6785C45.2652 3.00171 45.7345 3.16704 46.0865 3.49771C46.4385 3.82838 46.6145 4.27638 46.6145 4.84171C46.6145 5.39638 46.4385 5.84438 46.0865 6.18571C45.7345 6.51638 45.2652 6.68171 44.6785 6.68171H42.3905ZM53.7926 13.0017H61.7126V11.0817H55.9686V7.97771H61.3926V6.05771H55.9686V3.00171H61.7126V1.08171H53.7926V13.0017ZM66.3083 13.0017H71.3323C72.6656 13.0017 73.7056 12.6817 74.4523 12.0417C75.2096 11.391 75.5883 10.495 75.5883 9.35371C75.5883 8.80971 75.4816 8.29771 75.2683 7.81771C75.0549 7.33771 74.6816 6.92704 74.1483 6.58571C74.4789 6.28704 74.7189 5.95638 74.8683 5.59371C75.0283 5.23104 75.1083 4.84704 75.1083 4.44171C75.1083 3.39638 74.7723 2.57504 74.1003 1.97771C73.4283 1.38037 72.5056 1.08171 71.3323 1.08171H66.3083V13.0017ZM68.4843 5.70571V2.93771H71.4443C71.8923 2.93771 72.2496 3.06038 72.5163 3.30571C72.7829 3.55104 72.9163 3.88171 72.9163 4.29771C72.9163 4.71371 72.7829 5.05504 72.5163 5.32171C72.2496 5.57771 71.8923 5.70571 71.4443 5.70571H68.4843ZM68.4843 11.0817V7.60971H71.5563C72.1216 7.60971 72.5696 7.76971 72.9003 8.08971C73.2416 8.39904 73.4123 8.82038 73.4123 9.35371C73.4123 9.87638 73.2416 10.2977 72.9003 10.6177C72.5696 10.927 72.1216 11.0817 71.5563 11.0817H68.4843ZM80.3708 13.0017H87.6508V11.0817H82.5468V1.08171H80.3708V13.0017ZM97.6178 13.1937C98.5031 13.1937 99.3244 13.039 100.082 12.7297C100.839 12.4204 101.5 11.9884 102.066 11.4337C102.631 10.879 103.068 10.2284 103.378 9.48171C103.698 8.72438 103.858 7.90838 103.858 7.03371C103.858 6.14838 103.698 5.33238 103.378 4.58571C103.068 3.83904 102.631 3.19371 102.066 2.64971C101.5 2.09504 100.839 1.66304 100.082 1.35371C99.3244 1.04438 98.5031 0.889709 97.6178 0.889709C96.7324 0.889709 95.9111 1.04438 95.1538 1.35371C94.3964 1.66304 93.7351 2.09504 93.1698 2.64971C92.6151 3.19371 92.1778 3.83904 91.8578 4.58571C91.5484 5.33238 91.3938 6.14838 91.3938 7.03371C91.3938 7.90838 91.5484 8.72438 91.8578 9.48171C92.1778 10.2284 92.6204 10.879 93.1858 11.4337C93.7511 11.9884 94.4124 12.4204 95.1698 12.7297C95.9271 13.039 96.7431 13.1937 97.6178 13.1937ZM97.6178 11.2097C96.8498 11.2097 96.1564 11.0284 95.5378 10.6657C94.9298 10.303 94.4498 9.80704 94.0978 9.17771C93.7458 8.54838 93.5698 7.83371 93.5698 7.03371C93.5698 6.23371 93.7458 5.52438 94.0978 4.90571C94.4498 4.27638 94.9298 3.78038 95.5378 3.41771C96.1564 3.05504 96.8498 2.87371 97.6178 2.87371C98.3964 2.87371 99.0898 3.05504 99.6978 3.41771C100.306 3.78038 100.786 4.27638 101.138 4.90571C101.49 5.52438 101.666 6.23371 101.666 7.03371C101.666 7.83371 101.49 8.54838 101.138 9.17771C100.786 9.80704 100.306 10.303 99.6978 10.6657C99.0898 11.0284 98.3964 11.2097 97.6178 11.2097ZM114.393 13.1937C115.246 13.1937 116.009 13.0497 116.681 12.7617C117.363 12.4737 117.939 12.095 118.409 11.6257C118.878 11.1457 119.214 10.623 119.417 10.0577L117.465 9.14571C117.23 9.74304 116.846 10.239 116.313 10.6337C115.79 11.0177 115.15 11.2097 114.393 11.2097C113.646 11.2097 112.99 11.0337 112.425 10.6817C111.859 10.3297 111.417 9.84438 111.097 9.22571C110.777 8.59638 110.617 7.86571 110.617 7.03371C110.617 6.20171 110.777 5.47638 111.097 4.85771C111.417 4.22838 111.859 3.74304 112.425 3.40171C112.99 3.04971 113.646 2.87371 114.393 2.87371C115.15 2.87371 115.79 3.07104 116.313 3.46571C116.846 3.84971 117.23 4.34038 117.465 4.93771L119.417 4.02571C119.214 3.46038 118.878 2.94304 118.409 2.47371C117.939 1.99371 117.363 1.60971 116.681 1.32171C116.009 1.03371 115.246 0.889709 114.393 0.889709C113.539 0.889709 112.75 1.04438 112.025 1.35371C111.299 1.65237 110.67 2.07904 110.137 2.63371C109.603 3.17771 109.187 3.82838 108.889 4.58571C108.59 5.33238 108.441 6.14838 108.441 7.03371C108.441 7.91904 108.59 8.74038 108.889 9.49771C109.187 10.2444 109.603 10.895 110.137 11.4497C110.67 12.0044 111.299 12.4364 112.025 12.7457C112.75 13.0444 113.539 13.1937 114.393 13.1937ZM124.183 13.0017H126.359V9.65771L127.959 7.75371L131.159 13.0017H133.719L129.447 5.97771L133.575 1.08171H130.839L126.359 6.37771V1.08171H124.183V13.0017ZM142.142 13.1937C142.964 13.1937 143.684 13.0444 144.302 12.7457C144.921 12.447 145.406 12.0364 145.758 11.5137C146.11 10.991 146.286 10.3884 146.286 9.70571C146.286 8.11638 145.337 7.01771 143.438 6.40971L141.246 5.72171C140.82 5.58304 140.494 5.39104 140.27 5.14571C140.057 4.88971 139.95 4.59638 139.95 4.26571C139.95 3.82838 140.116 3.47638 140.446 3.20971C140.788 2.93238 141.236 2.79371 141.79 2.79371C142.409 2.79371 142.953 2.95904 143.422 3.28971C143.892 3.60971 144.244 4.06838 144.478 4.66571L146.27 3.86571C145.95 2.96971 145.39 2.24971 144.59 1.70571C143.801 1.16171 142.868 0.889709 141.79 0.889709C141.012 0.889709 140.318 1.03904 139.71 1.33771C139.113 1.62571 138.644 2.03104 138.302 2.55371C137.972 3.07638 137.806 3.67904 137.806 4.36171C137.806 5.14038 138.041 5.81771 138.51 6.39371C138.98 6.95904 139.678 7.39104 140.606 7.68971L142.894 8.42571C143.31 8.56438 143.62 8.74571 143.822 8.96971C144.036 9.19371 144.142 9.48171 144.142 9.83371C144.142 10.271 143.966 10.623 143.614 10.8897C143.273 11.1564 142.82 11.2897 142.254 11.2897C141.572 11.2897 140.958 11.0977 140.414 10.7137C139.87 10.319 139.454 9.78038 139.166 9.09771L137.358 9.88171C137.572 10.543 137.908 11.1244 138.366 11.6257C138.836 12.1164 139.39 12.5004 140.03 12.7777C140.681 13.055 141.385 13.1937 142.142 13.1937Z" fill="white"/>
</svg>
